<svg xmlns="http://www.w3.org/2000/svg" viewBox="0 0 24 24">
  <path fill="#3776AB" d="M11.95,3c-1.85,0-3.35.15-4.8.4-1.45.25-2.7.65-3.7,1.2C2.45,5.15,2,5.75,2,6.5V10c0,.8.45,1.45,1.45,2,1,.55,2.25.95,3.7,1.2,1.45.25,2.95.4,4.8.4s3.35-.15,4.8-.4c1.45-.25,2.7-.65,3.7-1.2,1-.55,1.45-1.2,1.45-2V6.5c0-.75-.45-1.35-1.45-1.9-1-.55-2.25-.95-3.7-1.2C15.3,3.15,13.8,3,11.95,3Z"/>
  <path fill="#FFD43B" d="M11.95,21c1.85,0,3.35-.15,4.8-.4,1.45-.25,2.7-.65,3.7-1.2,1-.55,1.45-1.2,1.45-2V14c0-.8-.45-1.45-1.45-2-1-.55-2.25-.95-3.7-1.2-1.45-.25-2.95-.4-4.8-.4s-3.35.15-4.8.4c-1.45.25-2.7.65-3.7,1.2C2.45,12.55,2,13.2,2,14v3.4c0,.8.45,1.45,1.45,2,1,.55,2.25.95,3.7,1.2,1.45.25,2.95.4,4.8.4Z"/>
</svg> 